<svg width="14" height="14" viewBox="0 0 14 14" fill="none" xmlns="http://www.w3.org/2000/svg">
<path d="M6.52631 0C5.97403 0 5.52632 0.447715 5.52632 1V5.52632H0.999999C0.447714 5.52632 0 5.97403 0 6.52632V7.47369C0 8.02597 0.447715 8.47368 1 8.47368H5.52632V13C5.52632 13.5523 5.97403 14 6.52632 14H7.47369C8.02597 14 8.47368 13.5523 8.47368 13V8.47368H13C13.5523 8.47368 14 8.02597 14 7.47368V6.52631C14 5.97403 13.5523 5.52632 13 5.52632H8.47368V0.999999C8.47368 0.447714 8.02597 0 7.47368 0H6.52631Z" fill="black"/>
</svg>
